<?xml version="1.0"?>
<svg version="1.1" xmlns="http://www.w3.org/2000/svg" viewBox="0 0 400 100" role="img" aria-label="The University of Iowa School of Music"><path fill="#FFCD00" d="M172.51,13.23h-1.73V25.69h1.73v4.54H163V25.69h1.73V13.23H163V8.77h9.51Z"/><path fill="#FFCD00" d="M185.29,30.23H178.4c-2.5,0-4.14-1.64-4.14-4.33V13.09a4,4,0,0,1,3.66-4.31,3.85,3.85,0,0,1,.48,0h6.89c2.5,0,4.13,1.67,4.13,4.32V25.87a4,4,0,0,1-3.62,4.35A4.34,4.34,0,0,1,185.29,30.23Zm-2-4.51V13.23h-3V25.69Z"/><path fill="#FFCD00" d="M192.13,13.24h-1.52V8.78h9v4.46h-1.7l1.55,10.31,3.21-14.79h4.57l3.43,14.79,1.25-10.31h-1.57V8.78h8.89v4.46h-1.48l-2.69,17h-7.25L205,17.58l-2.88,12.66h-7Z"/><path fill="#FFCD00" d="M217.67,25.69h1.63l3.25-16.92h9.72l3.21,16.92H237v4.54h-7.26L229.06,25h-3.61l-.65,5.22h-7.13Zm11-4.63-1.39-8.65-1.42,8.65Z"/><rect x="159" y="35.16" width="82" height="0.733" style="fill:#000000"/><path fill="#000000" d="M174.90625,45.6971875C174.90625,45.47583203125,174.828125,45.30591015625,174.671875,45.187421875C174.515625,45.06893359375,174.234375,44.94393359375,173.828125,44.812421875C173.421875,44.68091015625,173.10026171875,44.55135546875,172.86328125,44.42375C172.21744921875,44.07479296875,171.89453125,43.60473828125,171.89453125,43.01359375C171.89453125,42.70630078125,171.98112109375,42.43221484375,172.154296875,42.191328125C172.32747265625,41.95044140625,172.576171875,41.76229296875,172.900390625,41.626875C173.224609375,41.49145703125,173.58854296875,41.42375,173.9921875,41.42375C174.3984375,41.42375,174.76041796875,41.49731640625,175.078125,41.644453125C175.39583203125,41.79158984375,175.642578125,41.99926953125,175.818359375,42.2675C175.994140625,42.53573046875,176.08203125,42.84041796875,176.08203125,43.1815625C176.08203125,43.1815625,174.91015625,43.1815625,174.91015625,43.1815625C174.91015625,42.92114453125,174.828125,42.718671875,174.6640625,42.574140625C174.5,42.429609375,174.26953125,42.35734375,173.97265625,42.35734375C173.68619921875,42.35734375,173.46354296875,42.417890625,173.3046875,42.538984375C173.14583203125,42.660078125,173.06640625,42.81958203125,173.06640625,43.0175C173.06640625,43.20239453125,173.15950390625,43.35734375,173.345703125,43.48234375C173.53190234375,43.60734375,173.80598828125,43.72453125,174.16796875,43.83390625C174.83463671875,44.03442578125,175.3203125,44.283125,175.625,44.58C175.9296875,44.876875,176.08203125,45.24666796875,176.08203125,45.689375C176.08203125,46.1815625,175.89583203125,46.56762890625,175.5234375,46.847578125C175.15104296875,47.12752734375,174.64973828125,47.2675,174.01953125,47.2675C173.58203125,47.2675,173.18359375,47.187421875,172.82421875,47.027265625C172.46484375,46.867109375,172.19075390625,46.64770703125,172.001953125,46.3690625C171.81315234375,46.09041796875,171.71875,45.7675,171.71875,45.4003125C171.71875,45.4003125,172.89453125,45.4003125,172.89453125,45.4003125C172.89453125,46.02791796875,173.26953125,46.34171875,174.01953125,46.34171875C174.29817578125,46.34171875,174.515625,46.285078125,174.671875,46.171796875C174.828125,46.058515625,174.90625,45.9003125,174.90625,45.6971875Z M178.55859375,46.35734375C178.76692578125,46.35734375,178.93619921875,46.30005078125,179.06640625,46.18546875C179.19661328125,46.07088671875,179.26432421875,45.91854296875,179.26953125,45.7284375C179.26953125,45.7284375,180.328125,45.7284375,180.328125,45.7284375C180.32551953125,46.01489453125,180.24739453125,46.277265625,180.09375,46.515546875C179.94010546875,46.753828125,179.72981640625,46.93872265625,179.462890625,47.070234375C179.19596484375,47.20174609375,178.90104296875,47.2675,178.578125,47.2675C177.97395703125,47.2675,177.49739453125,47.07544140625,177.1484375,46.691328125C176.79948046875,46.30721484375,176.625,45.77661328125,176.625,45.09953125C176.625,45.09953125,176.625,45.0253125,176.625,45.0253125C176.625,44.37426953125,176.79817578125,43.85473828125,177.14453125,43.46671875C177.49088671875,43.07869921875,177.96614453125,42.8846875,178.5703125,42.8846875C179.09895703125,42.8846875,179.52278515625,43.035078125,179.841796875,43.335859375C180.16080859375,43.636640625,180.32291796875,44.03703125,180.328125,44.53703125C180.328125,44.53703125,179.26953125,44.53703125,179.26953125,44.53703125C179.26432421875,44.31828125,179.19661328125,44.140546875,179.06640625,44.003828125C178.93619921875,43.867109375,178.76432421875,43.79875,178.55078125,43.79875C178.28776171875,43.79875,178.08919140625,43.894453125,177.955078125,44.085859375C177.82096484375,44.277265625,177.75390625,44.5878125,177.75390625,45.0175C177.75390625,45.0175,177.75390625,45.1346875,177.75390625,45.1346875C177.75390625,45.56958203125,177.8203125,45.88208203125,177.953125,46.0721875C178.0859375,46.26229296875,178.28776171875,46.35734375,178.55859375,46.35734375Z M182.07421875,43.42375C182.37369921875,43.064375,182.75,42.8846875,183.203125,42.8846875C184.11979296875,42.8846875,184.58463671875,43.41723828125,184.59765625,44.48234375C184.59765625,44.48234375,184.59765625,47.189375,184.59765625,47.189375C184.59765625,47.189375,183.46875,47.189375,183.46875,47.189375C183.46875,47.189375,183.46875,44.51359375,183.46875,44.51359375C183.46875,44.27140625,183.41666796875,44.09237109375,183.3125,43.976484375C183.20833203125,43.86059765625,183.03515625,43.80265625,182.79296875,43.80265625C182.46223828125,43.80265625,182.22265625,43.93026171875,182.07421875,44.18546875C182.07421875,44.18546875,182.07421875,47.189375,182.07421875,47.189375C182.07421875,47.189375,180.9453125,47.189375,180.9453125,47.189375C180.9453125,47.189375,180.9453125,41.189375,180.9453125,41.189375C180.9453125,41.189375,182.07421875,41.189375,182.07421875,41.189375C182.07421875,41.189375,182.07421875,43.42375,182.07421875,43.42375Z M185.2734375,45.03703125C185.2734375,44.61776171875,185.35416796875,44.2440625,185.515625,43.9159375C185.67708203125,43.5878125,185.90950390625,43.33390625,186.212890625,43.15421875C186.51627734375,42.97453125,186.86848828125,42.8846875,187.26953125,42.8846875C187.83984375,42.8846875,188.30533984375,43.05916796875,188.666015625,43.408125C189.02669140625,43.75708203125,189.22786328125,44.23104296875,189.26953125,44.83C189.26953125,44.83,189.27734375,45.1190625,189.27734375,45.1190625C189.27734375,45.7675,189.09635546875,46.28768359375,188.734375,46.679609375C188.37239453125,47.07153515625,187.88671875,47.2675,187.27734375,47.2675C186.66796875,47.2675,186.181640625,47.0721875,185.818359375,46.6815625C185.455078125,46.2909375,185.2734375,45.7596875,185.2734375,45.0878125C185.2734375,45.0878125,185.2734375,45.03703125,185.2734375,45.03703125Z M186.40234375,45.1190625C186.40234375,45.52010546875,186.47786328125,45.82674609375,186.62890625,46.038984375C186.77994921875,46.25122265625,186.99609375,46.35734375,187.27734375,46.35734375C187.55078125,46.35734375,187.76432421875,46.25252734375,187.91796875,46.042890625C188.07161328125,45.83325390625,188.1484375,45.49796875,188.1484375,45.03703125C188.1484375,44.64380078125,188.07161328125,44.33911328125,187.91796875,44.12296875C187.76432421875,43.90682421875,187.54817578125,43.79875,187.26953125,43.79875C186.99348828125,43.79875,186.77994921875,43.906171875,186.62890625,44.121015625C186.47786328125,44.335859375,186.40234375,44.66854296875,186.40234375,45.1190625Z M189.796875,45.03703125C189.796875,44.61776171875,189.87760546875,44.2440625,190.0390625,43.9159375C190.20051953125,43.5878125,190.43294140625,43.33390625,190.736328125,43.15421875C191.03971484375,42.97453125,191.39192578125,42.8846875,191.79296875,42.8846875C192.36328125,42.8846875,192.82877734375,43.05916796875,193.189453125,43.408125C193.55012890625,43.75708203125,193.75130078125,44.23104296875,193.79296875,44.83C193.79296875,44.83,193.80078125,45.1190625,193.80078125,45.1190625C193.80078125,45.7675,193.61979296875,46.28768359375,193.2578125,46.679609375C192.89583203125,47.07153515625,192.41015625,47.2675,191.80078125,47.2675C191.19140625,47.2675,190.705078125,47.0721875,190.341796875,46.6815625C189.978515625,46.2909375,189.796875,45.7596875,189.796875,45.0878125C189.796875,45.0878125,189.796875,45.03703125,189.796875,45.03703125Z M190.92578125,45.1190625C190.92578125,45.52010546875,191.00130078125,45.82674609375,191.15234375,46.038984375C191.30338671875,46.25122265625,191.51953125,46.35734375,191.80078125,46.35734375C192.07421875,46.35734375,192.28776171875,46.25252734375,192.44140625,46.042890625C192.59505078125,45.83325390625,192.671875,45.49796875,192.671875,45.03703125C192.671875,44.64380078125,192.59505078125,44.33911328125,192.44140625,44.12296875C192.28776171875,43.90682421875,192.07161328125,43.79875,191.79296875,43.79875C191.51692578125,43.79875,191.30338671875,43.906171875,191.15234375,44.121015625C191.00130078125,44.335859375,190.92578125,44.66854296875,190.92578125,45.1190625Z M195.6875,47.189375C195.6875,47.189375,194.5546875,47.189375,194.5546875,47.189375C194.5546875,47.189375,194.5546875,41.189375,194.5546875,41.189375C194.5546875,41.189375,195.6875,41.189375,195.6875,41.189375C195.6875,41.189375,195.6875,47.189375,195.6875,47.189375Z M195.79296875,47.189375Z M198.43359375,45.03703125C198.43359375,44.61776171875,198.51432421875,44.2440625,198.67578125,43.9159375C198.83723828125,43.5878125,199.06966015625,43.33390625,199.373046875,43.15421875C199.67643359375,42.97453125,200.02864453125,42.8846875,200.4296875,42.8846875C201,42.8846875,201.46549609375,43.05916796875,201.826171875,43.408125C202.18684765625,43.75708203125,202.38801953125,44.23104296875,202.4296875,44.83C202.4296875,44.83,202.4375,45.1190625,202.4375,45.1190625C202.4375,45.7675,202.25651171875,46.28768359375,201.89453125,46.679609375C201.53255078125,47.07153515625,201.046875,47.2675,200.4375,47.2675C199.828125,47.2675,199.341796875,47.0721875,198.978515625,46.6815625C198.615234375,46.2909375,198.43359375,45.7596875,198.43359375,45.0878125C198.43359375,45.0878125,198.43359375,45.03703125,198.43359375,45.03703125Z M199.5625,45.1190625C199.5625,45.52010546875,199.63801953125,45.82674609375,199.7890625,46.038984375C199.94010546875,46.25122265625,200.15625,46.35734375,200.4375,46.35734375C200.7109375,46.35734375,200.92448046875,46.25252734375,201.078125,46.042890625C201.23176953125,45.83325390625,201.30859375,45.49796875,201.30859375,45.03703125C201.30859375,44.64380078125,201.23176953125,44.33911328125,201.078125,44.12296875C200.92448046875,43.90682421875,200.70833203125,43.79875,200.4296875,43.79875C200.15364453125,43.79875,199.94010546875,43.906171875,199.7890625,44.121015625C199.63801953125,44.335859375,199.5625,44.66854296875,199.5625,45.1190625Z M203.44140625,47.189375C203.44140625,47.189375,203.44140625,43.7909375,203.44140625,43.7909375C203.44140625,43.7909375,202.8125,43.7909375,202.8125,43.7909375C202.8125,43.7909375,202.8125,42.9628125,202.8125,42.9628125C202.8125,42.9628125,203.44140625,42.9628125,203.44140625,42.9628125C203.44140625,42.9628125,203.44140625,42.6034375,203.44140625,42.6034375C203.44140625,42.12948046875,203.57747265625,41.761640625,203.849609375,41.499921875C204.12174609375,41.238203125,204.50260546875,41.10734375,204.9921875,41.10734375C205.1484375,41.10734375,205.33984375,41.13338671875,205.56640625,41.18546875C205.56640625,41.18546875,205.5546875,42.06046875,205.5546875,42.06046875C205.4609375,42.03703125,205.34635546875,42.0253125,205.2109375,42.0253125C204.78645703125,42.0253125,204.57421875,42.22453125,204.57421875,42.62296875C204.57421875,42.62296875,204.57421875,42.9628125,204.57421875,42.9628125C204.57421875,42.9628125,205.4140625,42.9628125,205.4140625,42.9628125C205.4140625,42.9628125,205.4140625,43.7909375,205.4140625,43.7909375C205.4140625,43.7909375,204.57421875,43.7909375,204.57421875,43.7909375C204.57421875,43.7909375,204.57421875,47.189375,204.57421875,47.189375C204.57421875,47.189375,203.44140625,47.189375,203.44140625,47.189375Z M205.17578125,47.189375Z M209.59765625,41.501875C209.59765625,41.501875,211.05859375,45.626875,211.05859375,45.626875C211.05859375,45.626875,212.51171875,41.501875,212.51171875,41.501875C212.51171875,41.501875,214.05078125,41.501875,214.05078125,41.501875C214.05078125,41.501875,214.05078125,47.189375,214.05078125,47.189375C214.05078125,47.189375,212.875,47.189375,212.875,47.189375C212.875,47.189375,212.875,45.6346875,212.875,45.6346875C212.875,45.6346875,212.9921875,42.95109375,212.9921875,42.95109375C212.9921875,42.95109375,211.45703125,47.189375,211.45703125,47.189375C211.45703125,47.189375,210.65234375,47.189375,210.65234375,47.189375C210.65234375,47.189375,209.12109375,42.955,209.12109375,42.955C209.12109375,42.955,209.23828125,45.6346875,209.23828125,45.6346875C209.23828125,45.6346875,209.23828125,47.189375,209.23828125,47.189375C209.23828125,47.189375,208.06640625,47.189375,208.06640625,47.189375C208.06640625,47.189375,208.06640625,41.501875,208.06640625,41.501875C208.06640625,41.501875,209.59765625,41.501875,209.59765625,41.501875Z M217.53125,46.7596875C217.25260546875,47.09823046875,216.8671875,47.2675,216.375,47.2675C215.921875,47.2675,215.576171875,47.13729296875,215.337890625,46.876875C215.099609375,46.61645703125,214.97786328125,46.23494921875,214.97265625,45.73234375C214.97265625,45.73234375,214.97265625,42.9628125,214.97265625,42.9628125C214.97265625,42.9628125,216.1015625,42.9628125,216.1015625,42.9628125C216.1015625,42.9628125,216.1015625,45.69328125,216.1015625,45.69328125C216.1015625,46.13338671875,216.30208203125,46.3534375,216.703125,46.3534375C217.0859375,46.3534375,217.34895703125,46.220625,217.4921875,45.955C217.4921875,45.955,217.4921875,42.9628125,217.4921875,42.9628125C217.4921875,42.9628125,218.625,42.9628125,218.625,42.9628125C218.625,42.9628125,218.625,47.189375,218.625,47.189375C218.625,47.189375,217.5625,47.189375,217.5625,47.189375C217.5625,47.189375,217.53125,46.7596875,217.53125,46.7596875Z M221.765625,46.02140625C221.765625,45.88338671875,221.697265625,45.77466015625,221.560546875,45.695234375C221.423828125,45.61580859375,221.20442578125,45.54484375,220.90234375,45.48234375C219.89713671875,45.27140625,219.39453125,44.84432421875,219.39453125,44.20109375C219.39453125,43.82609375,219.55012890625,43.51294140625,219.861328125,43.261640625C220.17252734375,43.01033984375,220.57942578125,42.8846875,221.08203125,42.8846875C221.61848828125,42.8846875,222.04752734375,43.01098828125,222.369140625,43.26359375C222.69075390625,43.51619921875,222.8515625,43.84432421875,222.8515625,44.24796875C222.8515625,44.24796875,221.72265625,44.24796875,221.72265625,44.24796875C221.72265625,44.08651171875,221.67057421875,43.953046875,221.56640625,43.847578125C221.46223828125,43.742109375,221.29948046875,43.689375,221.078125,43.689375C220.88801953125,43.689375,220.74088671875,43.73234375,220.63671875,43.81828125C220.53255078125,43.90421875,220.48046875,44.01359375,220.48046875,44.14640625C220.48046875,44.27140625,220.53971484375,44.37231640625,220.658203125,44.449140625C220.77669140625,44.52596484375,220.9765625,44.59237109375,221.2578125,44.648359375C221.5390625,44.70434765625,221.77604296875,44.7675,221.96875,44.8378125C222.56510546875,45.0565625,222.86328125,45.43546875,222.86328125,45.97453125C222.86328125,46.35994921875,222.69791796875,46.671796875,222.3671875,46.910078125C222.03645703125,47.148359375,221.609375,47.2675,221.0859375,47.2675C220.73176953125,47.2675,220.41731640625,47.20434765625,220.142578125,47.078046875C219.86783984375,46.95174609375,219.65234375,46.77856640625,219.49609375,46.558515625C219.33984375,46.33846484375,219.26171875,46.10083203125,219.26171875,45.845625C219.26171875,45.845625,220.33203125,45.845625,220.33203125,45.845625C220.34244921875,46.04614453125,220.41666796875,46.19979296875,220.5546875,46.3065625C220.69270703125,46.41333203125,220.87760546875,46.46671875,221.109375,46.46671875C221.32551953125,46.46671875,221.48893359375,46.425703125,221.599609375,46.343671875C221.71028515625,46.261640625,221.765625,46.15421875,221.765625,46.02140625Z M224.6640625,47.189375C224.6640625,47.189375,223.53125,47.189375,223.53125,47.189375C223.53125,47.189375,223.53125,42.9628125,223.53125,42.9628125C223.53125,42.9628125,224.6640625,42.9628125,224.6640625,42.9628125C224.6640625,42.9628125,224.6640625,47.189375,224.6640625,47.189375Z M223.46484375,41.8690625C223.46484375,41.69979296875,223.521484375,41.56046875,223.634765625,41.45109375C223.748046875,41.34171875,223.90234375,41.28703125,224.09765625,41.28703125C224.29036328125,41.28703125,224.44401171875,41.34171875,224.55859375,41.45109375C224.67317578125,41.56046875,224.73046875,41.69979296875,224.73046875,41.8690625C224.73046875,42.0409375,224.67252734375,42.1815625,224.556640625,42.2909375C224.44075390625,42.4003125,224.28776171875,42.455,224.09765625,42.455C223.90755078125,42.455,223.75455859375,42.4003125,223.638671875,42.2909375C223.52278515625,42.1815625,223.46484375,42.0409375,223.46484375,41.8690625Z M227.3515625,46.35734375C227.55989453125,46.35734375,227.72916796875,46.30005078125,227.859375,46.18546875C227.98958203125,46.07088671875,228.05729296875,45.91854296875,228.0625,45.7284375C228.0625,45.7284375,229.12109375,45.7284375,229.12109375,45.7284375C229.11848828125,46.01489453125,229.04036328125,46.277265625,228.88671875,46.515546875C228.73307421875,46.753828125,228.52278515625,46.93872265625,228.255859375,47.070234375C227.98893359375,47.20174609375,227.69401171875,47.2675,227.37109375,47.2675C226.76692578125,47.2675,226.29036328125,47.07544140625,225.94140625,46.691328125C225.59244921875,46.30721484375,225.41796875,45.77661328125,225.41796875,45.09953125C225.41796875,45.09953125,225.41796875,45.0253125,225.41796875,45.0253125C225.41796875,44.37426953125,225.59114453125,43.85473828125,225.9375,43.46671875C226.28385546875,43.07869921875,226.75911328125,42.8846875,227.36328125,42.8846875C227.89192578125,42.8846875,228.31575390625,43.035078125,228.634765625,43.335859375C228.95377734375,43.636640625,229.11588671875,44.03703125,229.12109375,44.53703125C229.12109375,44.53703125,228.0625,44.53703125,228.0625,44.53703125C228.05729296875,44.31828125,227.98958203125,44.140546875,227.859375,44.003828125C227.72916796875,43.867109375,227.55729296875,43.79875,227.34375,43.79875C227.08073046875,43.79875,226.88216015625,43.894453125,226.748046875,44.085859375C226.61393359375,44.277265625,226.546875,44.5878125,226.546875,45.0175C226.546875,45.0175,226.546875,45.1346875,226.546875,45.1346875C226.546875,45.56958203125,226.61328125,45.88208203125,226.74609375,46.0721875C226.87890625,46.26229296875,227.08073046875,46.35734375,227.3515625,46.35734375Z"/></svg>
